<svg width="50" height="50" viewBox="0 0 50 50" fill="none" xmlns="http://www.w3.org/2000/svg">
<circle cx="25" cy="25" r="24.5" fill="#F5F5F5" stroke="#757575" stroke-dasharray="4 4"/>
<path d="M25 13C18.376 13 13 18.376 13 25C13 31.624 18.376 37 25 37C31.624 37 37 31.624 37 25C37 18.376 31.624 13 25 13ZM29.8 26.2H26.2V29.8C26.2 30.46 25.66 31 25 31C24.34 31 23.8 30.46 23.8 29.8V26.2H20.2C19.54 26.2 19 25.66 19 25C19 24.34 19.54 23.8 20.2 23.8H23.8V20.2C23.8 19.54 24.34 19 25 19C25.66 19 26.2 19.54 26.2 20.2V23.8H29.8C30.46 23.8 31 24.34 31 25C31 25.66 30.46 26.2 29.8 26.2Z" fill="#616161"/>
</svg>
