<svg width="22" height="21" viewBox="0 0 22 21" fill="none" xmlns="http://www.w3.org/2000/svg">
<path d="M0 21L14 16L5 7L0 21ZM10.35 15.18L3.3 17.7L5.82 10.65L10.35 15.18Z" fill="#424242"/>
<path d="M12.53 11.5301L18.12 5.94014C18.61 5.45014 19.4 5.45014 19.89 5.94014L20.48 6.53014L21.54 5.47014L20.95 4.88014C19.88 3.81014 18.13 3.81014 17.06 4.88014L11.47 10.4701L12.53 11.5301Z" fill="#424242"/>
<path d="M8.05997 5.87996L7.46997 6.46996L8.52997 7.52996L9.11997 6.93996C10.19 5.86996 10.19 4.11996 9.11997 3.04996L8.52997 2.45996L7.46997 3.52996L8.05997 4.11996C8.53997 4.59996 8.53997 5.39996 8.05997 5.87996Z" fill="#424242"/>
<path d="M15.06 10.8801L13.47 12.4701L14.53 13.5301L16.12 11.9401C16.61 11.4501 17.4 11.4501 17.89 11.9401L19.5 13.5501L20.56 12.4901L18.95 10.8801C17.87 9.81014 16.13 9.81014 15.06 10.8801Z" fill="#424242"/>
<path d="M13.06 4.87996L9.46997 8.46996L10.53 9.52996L14.12 5.93996C15.19 4.86996 15.19 3.11996 14.12 2.04996L12.53 0.459961L11.47 1.51996L13.06 3.10996C13.54 3.59996 13.54 4.39996 13.06 4.87996Z" fill="#424242"/>
</svg>
